<?xml version="1.0" standalone="no"?>
<!DOCTYPE svg PUBLIC "-//W3C//DTD SVG 20010904//EN"
 "http://www.w3.org/TR/2001/REC-SVG-20010904/DTD/svg10.dtd">
<svg version="1.0" xmlns="http://www.w3.org/2000/svg"
 width="626.000000pt" height="626.000000pt" viewBox="0 0 626.000000 626.000000"
 preserveAspectRatio="xMidYMid meet">
<metadata>
Created by potrace 1.11, written by Peter Selinger 2001-2013
</metadata>
<g transform="translate(0.000000,626.000000) scale(0.100000,-0.100000)"
fill="#000000" stroke="none">
<path d="M2438 5667 l-38 -42 0 -156 c0 -145 2 -158 22 -184 20 -26 22 -40 24
-214 4 -248 -11 -597 -27 -641 -25 -66 -56 -97 -143 -140 -89 -44 -151 -91
-187 -142 -22 -30 -22 -30 -1 -19 28 15 31 14 27 -9 -4 -21 9 -27 20 -10 3 6
12 10 18 9 9 0 9 -2 0 -6 -7 -2 -13 -9 -13 -14 0 -17 23 -9 58 22 19 17 48 36
64 41 15 5 26 13 23 17 -2 5 27 38 64 75 44 42 71 62 74 54 3 -7 6 -3 6 10 1
22 0 22 -30 7 -17 -9 -33 -14 -36 -11 -3 3 6 11 21 17 14 7 26 16 26 20 0 4 9
9 21 11 19 3 32 20 58 78 6 14 12 52 14 85 l3 60 2 -67 c1 -38 6 -68 12 -68 6
0 9 36 6 98 -2 53 -2 81 1 62 7 -58 23 -59 20 -2 -1 38 2 52 13 55 8 3 3 3
-12 2 -18 -1 -28 3 -28 12 0 7 9 13 21 13 11 0 18 4 15 9 -3 4 -17 6 -31 3
-15 -2 -25 0 -25 7 0 6 6 11 14 11 7 0 19 7 26 15 10 13 9 15 -9 15 -11 0 -21
5 -21 10 0 6 6 10 14 10 12 0 14 12 11 53 -2 28 -4 78 -5 110 0 36 -4 56 -10
52 -16 -10 -2 164 14 181 21 20 26 18 27 -13 l2 -28 6 25 c4 17 7 4 12 -40 l6
-65 1 69 c2 66 3 68 25 62 12 -3 30 -6 40 -6 10 0 17 -8 17 -20 0 -11 5 -20
11 -20 5 0 7 5 4 10 -4 6 -2 17 5 25 9 11 3 15 -33 20 -60 9 -75 19 -55 38 10
11 45 16 115 20 56 2 106 7 111 11 13 8 27 -71 15 -87 -13 -17 -4 -389 10
-380 6 4 7 1 2 -8 -5 -7 -12 -29 -16 -49 -5 -29 -7 -22 -9 35 -1 39 -4 81 -6
95 -10 88 -18 352 -9 361 17 17 -22 9 -46 -10 l-23 -18 24 -13 c23 -12 23 -13
16 -154 -4 -77 -7 -158 -6 -178 1 -32 -3 -38 -19 -38 -14 0 -19 5 -15 15 4 8
1 15 -6 15 -6 0 -8 5 -5 10 3 6 1 10 -6 10 -6 0 -9 -8 -6 -20 3 -12 -1 -24
-11 -30 -14 -8 -14 -10 -2 -10 10 -1 9 -4 -5 -10 -18 -8 -18 -9 -2 -9 14 -1
16 -5 7 -20 -6 -13 -7 -22 0 -26 9 -6 2 -36 -11 -45 -4 -3 -10 -22 -14 -43 -6
-30 -4 -37 9 -37 9 0 17 -3 17 -7 7 -41 5 -56 -10 -60 -11 -3 -17 -14 -16 -31
0 -15 -4 -30 -10 -34 -5 -4 -1 -8 11 -8 12 0 26 -11 34 -25 8 -14 19 -24 24
-22 6 2 20 1 31 -4 14 -5 7 -8 -27 -8 -75 -1 -94 -13 -96 -58 -1 -33 2 -39 19
-40 14 -1 19 3 15 13 -3 8 -1 14 4 14 6 0 10 -4 10 -9 0 -5 14 -14 30 -20 25
-8 30 -7 30 5 0 8 5 12 10 9 6 -4 10 6 10 22 l1 28 19 -24 c11 -13 20 -19 20
-15 0 5 6 0 12 -11 16 -27 16 -65 1 -65 -19 0 -16 -24 5 -43 9 -8 19 -15 22
-15 3 1 15 -2 28 -6 13 -4 28 -3 35 2 7 7 26 7 47 2 l35 -8 -32 -1 c-35 -1
-57 -21 -22 -21 16 0 20 -5 16 -20 -3 -13 0 -20 9 -20 8 0 14 -5 14 -11 0 -8
14 -10 45 -6 42 6 45 5 51 -18 7 -30 -2 -59 -16 -50 -16 10 -12 -6 7 -27 15
-17 15 -18 0 -18 -10 0 -17 -7 -17 -15 0 -9 -10 -15 -27 -16 l-28 -1 25 -7
c22 -6 23 -8 7 -14 -10 -4 -41 -7 -68 -7 -27 0 -49 -4 -49 -9 0 -5 -10 -7 -22
-4 -22 4 -22 4 1 -10 14 -8 32 -13 40 -10 9 3 6 -4 -8 -16 -18 -16 -20 -21 -7
-21 9 0 16 -4 16 -10 0 -5 -4 -10 -10 -10 -6 0 -11 -53 -11 -137 -1 -83 -4
-122 -8 -98 l-7 40 -5 -47 c-3 -34 -1 -48 8 -48 18 0 16 -20 -8 -65 -15 -30
-19 -51 -15 -85 4 -32 3 -39 -4 -25 -5 13 -7 -12 -3 -71 8 -120 -4 -244 -23
-244 -12 0 -14 47 -15 288 0 158 -4 310 -7 337 -4 28 -7 -109 -7 -302 0 -194
3 -353 7 -353 4 0 10 4 13 10 11 19 25 10 25 -16 0 -14 4 -23 9 -19 16 9 24
-60 13 -111 -11 -48 -7 -74 10 -74 6 0 7 13 3 31 -5 20 -3 29 3 25 11 -7 23
66 21 133 -2 46 -2 46 -9 11 -6 -29 -7 -23 -8 30 0 80 15 141 18 70 1 -25 5
-65 10 -90 8 -39 9 -35 5 25 -3 39 -5 85 -5 103 0 18 -3 31 -7 29 -5 -3 -7 36
-5 86 2 67 0 88 -8 77 -12 -16 -8 86 6 170 l8 45 7 -40 c4 -27 6 -12 6 50 0
75 -1 82 -7 40 -5 -37 -7 -16 -8 77 -2 104 1 132 16 157 15 28 34 42 31 24 -1
-5 0 -26 1 -48 l3 -40 7 40 c7 38 7 38 9 -18 0 -37 -3 -56 -9 -52 -6 4 -10
-24 -10 -77 0 -52 -5 -89 -12 -96 -9 -9 -9 -12 0 -12 7 0 11 -21 11 -57 0 -32
1 -74 2 -93 1 -19 2 -46 1 -60 -3 -54 1 -80 9 -74 5 3 9 -4 9 -15 0 -12 4 -21
9 -21 12 0 21 41 14 68 -3 12 -2 43 2 69 10 69 23 34 21 -59 -1 -43 1 -78 3
-78 9 0 30 36 31 52 0 9 4 18 10 20 5 2 10 20 12 40 1 20 6 34 10 32 4 -3 5
-16 2 -30 -4 -14 -2 -24 5 -24 6 0 12 8 12 18 2 31 4 36 26 85 12 26 20 55 17
65 -5 14 -4 14 4 3 8 -11 12 -6 17 22 5 25 16 42 34 53 l26 15 -7 212 c-9 273
-16 306 -76 364 -26 25 -60 50 -77 57 -34 15 -98 63 -155 116 -52 49 -55 78
-55 520 0 360 0 365 22 395 20 27 23 46 28 184 3 103 2 158 -6 167 -6 7 -14
25 -18 40 -10 40 -38 44 -251 43 l-185 -1 -37 -41z m432 13 c0 -4 -31 -11 -70
-15 -38 -4 -67 -11 -64 -16 3 -5 -35 -8 -88 -8 -67 1 -83 4 -58 9 35 7 35 7
-11 9 -69 2 -113 12 -97 22 17 11 388 10 388 -1z m18 -32 c-2 -9 -15 -11 -43
-7 -38 6 -38 6 -7 8 21 0 35 7 39 18 7 19 17 2 11 -19z m-185 -27 c27 -1 46
-5 43 -10 -3 -4 -18 -6 -33 -4 -22 4 -25 2 -13 -6 11 -8 5 -9 -24 -4 -28 4
-37 3 -32 -5 4 -7 13 -12 20 -12 8 0 27 -7 42 -15 l29 -15 -39 0 c-30 0 -37
-3 -32 -15 4 -10 -1 -15 -15 -15 -18 0 -20 4 -15 26 6 22 4 24 -11 16 -10 -5
-24 -7 -30 -5 -7 3 -13 0 -13 -5 0 -14 -30 -8 -40 8 -8 13 -60 21 -60 9 0 -4
-11 -6 -25 -6 -21 0 -25 4 -25 31 l0 32 113 -2 c61 -1 134 -2 160 -3z m110
-23 c4 -10 8 -9 16 2 8 11 11 11 11 2 0 -10 5 -10 20 -2 14 7 26 8 39 0 16 -8
18 -13 8 -35 -13 -26 -22 -31 -31 -16 -3 5 -19 7 -36 5 -17 -2 -30 1 -30 7 0
7 -9 9 -21 6 -14 -4 -19 -2 -16 7 4 9 -2 11 -19 8 -30 -6 -31 6 -1 18 32 13
55 12 60 -2z m-186 -83 c10 -24 9 -25 -18 -25 -16 0 -29 -5 -29 -12 0 -10 -2
-10 -9 0 -4 7 -24 14 -44 15 -30 2 -37 6 -36 22 0 11 3 14 6 8 6 -15 43 -17
43 -3 0 12 36 14 43 3 2 -5 2 -2 1 5 -6 23 31 12 43 -13z m270 -32 c-3 -10 -5
-4 -5 12 0 17 2 24 5 18 2 -7 2 -21 0 -30z m-82 -33 c-3 -5 -13 -10 -21 -10
-8 0 -12 -4 -9 -10 4 -6 -5 -10 -19 -10 -14 0 -26 6 -26 13 0 6 -7 3 -16 -8
-12 -17 -16 -18 -24 -5 -12 20 -9 22 57 30 32 4 59 8 61 9 2 0 0 -3 -3 -9z
m-156 -42 c16 -35 19 -39 20 -19 1 24 1 24 22 5 12 -10 24 -18 28 -18 3 1 16
-2 29 -7 13 -5 27 -9 32 -9 4 0 6 -9 3 -19 -6 -24 -75 -33 -212 -29 -78 2 -95
6 -99 20 -2 9 -10 14 -18 11 -8 -3 -14 0 -14 6 0 6 -7 8 -16 4 -13 -5 -15 -2
-8 18 4 13 8 35 7 49 0 22 2 20 16 -11 9 -20 21 -34 28 -32 6 2 18 -6 27 -19
12 -16 16 -18 16 -7 0 23 84 46 105 29 13 -10 15 -9 15 11 0 43 -13 51 -69 46
-28 -3 -51 -1 -51 4 0 5 27 9 60 9 l59 0 20 -42z m231 -19 c0 -20 -7 -42 -15
-49 -8 -7 -15 -10 -15 -7 0 3 -13 2 -30 -3 -35 -10 -37 -3 -11 46 11 20 22 31
26 24 10 -17 25 -1 25 28 0 21 2 24 10 12 5 -8 10 -31 10 -51z m-390 -619 c0
-22 -3 -40 -8 -40 -4 0 -6 18 -4 40 2 22 6 40 8 40 2 0 4 -18 4 -40z m284 15
c3 -8 1 -15 -4 -15 -6 0 -10 7 -10 15 0 8 2 15 4 15 2 0 6 -7 10 -15z m-24
-15 c0 -5 -7 -10 -16 -10 -8 0 -12 5 -9 10 3 6 10 10 16 10 5 0 9 -4 9 -10z
m29 -175 c-1 -91 -2 -165 -4 -165 -20 0 -33 14 -26 28 4 10 5 51 1 92 -22 208
-22 202 22 209 5 0 7 -73 7 -164z m-302 -17 c-2 -18 -4 -6 -4 27 0 33 2 48 4
33 2 -15 2 -42 0 -60z m363 -18 c4 -69 0 -140 -8 -140 -4 0 -7 43 -7 95 0 52
3 91 6 87 4 -4 8 -23 9 -42z m-90 -210 c0 -5 -6 -7 -14 -4 -9 3 -16 -2 -18
-13 -3 -15 -5 -15 -10 5 -5 18 -2 22 18 22 13 0 24 -4 24 -10z m-380 -55 c-7
-8 -20 -15 -29 -15 -11 1 -8 5 9 15 32 18 35 18 20 0z m780 -217 c0 -5 -4 -8
-10 -8 -5 0 -10 6 -10 13 0 8 -3 7 -10 -3 -12 -20 -28 -4 -36 39 -5 26 -4 32
5 27 7 -5 16 -18 21 -30 7 -16 9 -17 9 -4 1 9 -3 20 -9 23 -5 3 -10 12 -10 18
1 13 50 -62 50 -75z m21 50 c0 -7 3 -26 5 -43 4 -23 2 -27 -7 -18 -15 15 -22
73 -9 73 6 0 10 -6 11 -12z m-61 -128 c0 -11 -4 -20 -9 -20 -5 0 -7 9 -4 20 3
11 7 20 9 20 2 0 4 -9 4 -20z m0 -43 c0 -8 -7 -14 -15 -14 -16 0 -19 9 -8 20
11 11 23 8 23 -6z m30 9 c0 -3 -4 -8 -10 -11 -5 -3 -10 -1 -10 4 0 6 5 11 10
11 6 0 10 -2 10 -4z m0 -36 c0 -5 -9 -10 -21 -10 -11 0 -17 5 -14 10 3 6 13
10 21 10 8 0 14 -4 14 -10z m-120 -25 c0 -8 -4 -15 -10 -15 -5 0 -10 7 -10 15
0 8 5 15 10 15 6 0 10 -7 10 -15z m50 5 c0 -5 -4 -10 -10 -10 -5 0 -10 5 -10
10 0 6 5 10 10 10 6 0 10 -4 10 -10z m67 -6 c-3 -3 -12 -4 -19 -1 -8 3 -5 6 6
6 11 1 17 -2 13 -5z m-117 -84 c0 -33 -4 -60 -10 -60 -11 0 -14 103 -3 113 12
12 13 8 13 -53z m17 8 c-3 -8 -6 -5 -6 6 -1 11 2 17 5 13 3 -3 4 -12 1 -19z
m26 7 c-3 -9 -8 -14 -10 -11 -3 3 -2 9 2 15 9 16 15 13 8 -4z m104 -102 c-2
-16 -4 -3 -4 27 0 30 2 43 4 28 2 -16 2 -40 0 -55z m-158 -25 c-1 -24 2 -52 6
-63 6 -19 6 -19 -8 -2 -15 18 -16 17 -20 -10 -3 -24 -4 -22 -6 10 0 20 4 37 9
37 6 0 10 16 10 35 0 19 2 35 5 35 3 0 5 -19 4 -42z m58 -20 c-3 -8 -6 -5 -6
6 -1 11 2 17 5 13 3 -3 4 -12 1 -19z m13 -39 c0 -11 -4 -17 -10 -14 -5 3 -10
13 -10 21 0 8 5 14 10 14 6 0 10 -9 10 -21z m-3 -51 c-3 -8 -6 -5 -6 6 -1 11
2 17 5 13 3 -3 4 -12 1 -19z m-37 -13 c1 12 4 15 7 7 3 -7 -3 -24 -12 -38 -10
-16 -14 -35 -11 -49 3 -13 3 -31 -1 -41 -6 -16 -7 -16 -13 1 -4 11 -7 -9 -7
-44 -1 -35 -5 -67 -9 -71 -5 -5 -9 48 -10 118 0 74 2 110 6 87 l7 -40 2 42 c1
45 22 63 33 29 6 -20 6 -20 8 -1z m21 -202 c-9 -16 -10 -16 -11 -1 0 9 3 25 7
35 7 16 8 17 11 1 2 -10 -1 -25 -7 -35z m-164 -125 c-3 -8 -6 -5 -6 6 -1 11 2
17 5 13 3 -3 4 -12 1 -19z m0 -50 c-3 -7 -5 -2 -5 12 0 14 2 19 5 13 2 -7 2
-19 0 -25z m-20 -120 c-3 -8 -6 -5 -6 6 -1 11 2 17 5 13 3 -3 4 -12 1 -19z"/>
<path d="M2532 5110 c0 -19 2 -27 5 -17 2 9 2 25 0 35 -3 9 -5 1 -5 -18z"/>
<path d="M2653 5045 c0 -38 2 -53 4 -32 2 20 2 52 0 70 -2 17 -4 1 -4 -38z"/>
<path d="M2641 4953 c1 -10 5 -31 9 -48 7 -27 8 -25 9 18 0 26 -3 47 -9 47 -5
0 -9 -8 -9 -17z"/>
<path d="M2563 4890 c0 -30 2 -43 4 -27 2 15 2 39 0 55 -2 15 -4 2 -4 -28z"/>
<path d="M2663 4780 c0 -25 2 -35 4 -22 2 12 2 32 0 45 -2 12 -4 2 -4 -23z"/>
<path d="M2560 4570 c0 -5 7 -7 15 -4 8 4 15 8 15 10 0 2 -7 4 -15 4 -8 0 -15
-4 -15 -10z"/>
<path d="M2661 4524 c0 -11 3 -14 6 -6 3 7 2 16 -1 19 -3 4 -6 -2 -5 -13z"/>
<path d="M2540 4501 c0 -11 4 -22 9 -25 5 -3 9 6 9 19 0 14 -4 25 -9 25 -5 0
-9 -9 -9 -19z"/>
<path d="M2438 4283 c-13 -12 -18 -13 -18 -4 0 7 -23 -6 -50 -29 -28 -23 -49
-48 -48 -56 2 -8 -17 -32 -42 -55 -25 -22 -37 -38 -26 -35 14 5 17 2 12 -9 -3
-10 -2 -13 5 -10 6 4 8 13 5 20 -2 7 2 16 9 19 17 6 30 -10 15 -19 -5 -3 -10
-11 -10 -16 0 -6 14 -1 30 11 17 12 30 18 30 14 0 -4 7 1 16 12 8 10 13 13 9
7 -3 -7 -1 -13 4 -13 6 0 11 5 11 11 0 5 4 8 9 5 5 -3 15 2 22 12 12 15 12 16
-2 4 -14 -10 -18 -10 -22 3 -4 8 -1 14 5 12 6 -1 12 7 13 18 4 37 10 50 28 67
10 9 17 24 15 33 -3 14 -5 14 -20 -2z m-88 -137 c0 -2 -8 -10 -17 -17 -16 -13
-17 -12 -4 4 13 16 21 21 21 13z"/>
<path d="M2480 4255 c-12 -19 -26 -33 -30 -30 -12 7 -33 -33 -24 -46 9 -15 53
29 71 70 20 46 10 50 -17 6z"/>
<path d="M2761 4240 c0 -8 4 -22 9 -30 12 -18 12 -2 0 25 -6 13 -9 15 -9 5z"/>
<path d="M2723 4214 c-10 -21 -9 -24 8 -24 20 0 24 16 11 37 -5 8 -11 3 -19
-13z"/>
<path d="M2750 4173 c-82 -11 -90 -14 -78 -27 8 -7 20 -15 28 -19 9 -3 3 -6
-13 -6 -16 -1 -26 -5 -22 -10 3 -5 -7 -12 -22 -14 -16 -2 3 -5 40 -6 51 -1 69
-5 74 -17 3 -8 1 -20 -6 -27 -13 -13 -15 -53 -2 -61 4 -3 6 6 3 21 -3 17 0 29
12 35 12 7 14 13 6 29 -9 16 -7 19 12 20 13 1 37 2 55 3 17 1 30 -1 28 -5 -3
-3 8 -4 23 -1 24 5 24 6 7 13 -15 6 -11 8 18 8 20 1 37 6 37 12 0 8 -16 9 -47
5 -48 -5 -48 -5 -18 9 l30 15 -50 -3 c-39 -1 -50 1 -50 13 0 14 -25 19 -65 13z"/>
<path d="M2045 4074 c-17 -41 -20 -67 -5 -44 9 13 10 13 10 0 0 -9 -5 -21 -10
-26 -7 -7 -8 -89 -3 -255 7 -200 9 -227 14 -149 4 67 6 79 7 39 4 -111 15
-208 23 -203 5 3 9 -4 9 -15 0 -12 6 -21 13 -21 8 0 8 -3 -2 -9 -8 -5 -11 -16
-8 -25 7 -19 87 -56 120 -56 15 0 18 -3 10 -8 -9 -6 -12 -54 -9 -190 2 -100 0
-180 -3 -177 -4 2 -7 -46 -8 -106 0 -60 -3 -112 -7 -116 -3 -3 -6 107 -6 245
0 138 -3 253 -7 255 -12 7 5 -751 17 -800 13 -53 13 -263 0 -283 -6 -10 -10
35 -10 137 0 83 -4 154 -9 158 -13 7 -4 -359 9 -405 5 -19 10 -58 10 -87 0
-52 -1 -53 -27 -49 -16 2 -41 9 -56 15 -36 14 -37 14 -37 -6 0 -16 -1 -16 -12
0 -14 19 -15 -105 -5 -716 5 -269 8 -323 22 -343 9 -14 21 -22 27 -18 7 4 8 3
4 -4 -7 -11 41 -45 97 -70 33 -14 48 -16 27 -2 -13 8 -12 10 3 10 10 0 20 -6
23 -13 3 -8 20 -12 46 -10 23 1 49 -3 57 -8 13 -9 12 -9 -4 -4 -15 5 -17 3 -9
-5 18 -18 310 -30 439 -19 123 12 305 41 287 47 -20 6 -1 32 24 32 13 0 24 4
24 9 0 5 10 7 23 4 18 -4 19 -3 7 7 -12 9 -11 10 8 5 28 -8 62 2 62 20 0 7 7
16 16 19 26 10 30 6 10 -9 -30 -22 -8 -18 31 6 44 28 57 15 18 -18 -23 -20
-25 -23 -5 -11 55 33 53 -1 30 603 -5 143 -10 303 -10 355 0 65 -3 90 -10 80
-8 -12 -10 -11 -10 8 0 36 -18 25 -26 -15 -8 -41 -9 -116 -5 -286 5 -170 -5
-135 -14 50 -9 214 -25 333 -20 155 2 -71 -1 -120 -6 -116 -5 3 -9 18 -9 35 0
16 -4 29 -10 29 -6 0 -10 28 -10 65 0 36 -4 65 -9 65 -9 0 -6 -131 4 -226 2
-22 2 -50 -2 -62 -4 -18 -9 -20 -24 -11 -10 5 -19 20 -19 32 -1 32 -30 -51
-30 -85 0 -16 -4 -28 -9 -28 -11 0 -25 216 -18 279 3 25 2 62 -2 81 -7 30 -9
24 -15 -45 -4 -44 -11 -96 -16 -116 -6 -20 -10 -95 -10 -168 l0 -131 -25 0
c-23 0 -25 3 -25 48 0 29 -6 56 -16 68 -15 19 -16 19 -8 -1 4 -11 9 -71 11
-134 3 -86 1 -116 -9 -122 -10 -7 -10 -9 0 -9 8 0 12 -18 12 -57 0 -31 3 -54
6 -50 3 3 6 43 5 88 -1 57 3 85 11 91 10 6 10 8 1 8 -8 0 -13 13 -13 30 0 25
4 30 24 30 24 0 24 -2 25 -89 1 -77 -1 -90 -16 -94 -17 -4 -17 -5 0 -6 14 -1
15 -4 5 -21 -19 -29 -5 -32 46 -11 35 16 46 17 46 7 0 -7 -14 -16 -31 -20 -19
-3 -28 -10 -23 -17 6 -11 -10 -8 -55 9 -9 3 -12 1 -7 -6 4 -7 17 -12 29 -13
20 -1 19 -2 -5 -12 -33 -13 -38 -31 -5 -21 30 10 68 35 63 43 -2 3 7 6 20 6
29 0 33 -29 7 -45 -17 -10 -17 -10 1 -8 28 4 31 -21 4 -31 -17 -7 -18 -10 -5
-10 35 -2 16 -19 -28 -25 -24 -4 -47 -11 -50 -16 -3 -6 1 -7 9 -4 11 4 14 -1
13 -16 -1 -15 -11 -26 -29 -32 -16 -6 -28 -14 -28 -19 0 -14 27 -11 43 6 21
21 71 32 65 14 -3 -8 -15 -16 -29 -17 -13 -2 -29 -8 -36 -14 -7 -5 -26 -7 -44
-3 -22 5 -29 4 -25 -4 4 -6 2 -9 -7 -5 -7 2 -25 0 -40 -5 -14 -6 -74 -11 -132
-12 -107 -1 -138 -14 -65 -25 22 -4 43 -11 46 -15 3 -5 22 -10 42 -10 l37 -1
-30 -8 c-16 -4 -60 -8 -97 -9 -37 0 -70 -5 -73 -11 -7 -12 -73 -13 -130 -3
l-40 8 45 6 45 6 -47 1 c-66 3 -93 16 -108 52 l-13 32 -18 -23 c-17 -22 -19
-22 -19 -5 0 19 -1 19 -13 2 -13 -17 -14 -16 -26 13 -14 31 -35 35 -24 3 4
-13 2 -13 -10 3 -9 11 -17 26 -17 33 0 7 -5 10 -10 7 -7 -4 -6 -13 1 -26 17
-33 3 -33 -21 1 -12 16 -25 28 -30 25 -5 -3 -14 4 -20 15 -6 11 -16 20 -22 20
-7 0 -7 -4 -1 -13 6 -6 10 -20 10 -29 0 -14 -3 -15 -14 -7 -7 6 -10 15 -7 20
2 5 -2 22 -11 39 -8 16 -16 33 -16 37 -3 16 -11 38 -20 56 -6 10 -12 67 -14
125 l-4 107 12 -92 c7 -50 16 -95 21 -100 5 -4 6 6 3 23 -3 17 -9 55 -12 85
-3 30 -9 74 -12 99 -6 44 -7 44 -14 15 -7 -27 -8 -27 -3 5 3 19 8 55 11 80 4
36 7 41 14 25 13 -33 7 234 -7 273 -9 29 -13 32 -17 16 -2 -10 -5 1 -6 25 -1
33 2 42 13 38 12 -5 12 -2 1 20 -7 14 -11 31 -9 38 3 7 1 16 -5 20 -6 3 -11
16 -11 28 1 22 1 22 13 2 6 -11 12 -24 12 -30 0 -5 11 -12 25 -16 l25 -7 -25
-2 c-25 -2 -24 -2 4 -10 20 -7 35 -5 52 7 15 9 24 11 24 4 0 -6 3 -11 8 -11 4
0 7 85 7 190 0 104 3 182 7 172 5 -13 7 -10 7 9 1 15 3 39 5 55 2 16 1 23 -1
17 -2 -7 -11 -13 -19 -13 -11 0 -14 18 -14 87 0 92 9 106 17 26 8 -79 18 -77
21 5 3 118 4 122 13 122 5 0 6 6 3 14 -3 8 0 24 6 37 11 19 10 21 -4 16 -9 -4
-16 -2 -16 3 0 6 5 10 10 10 6 0 10 11 10 25 0 31 -13 32 -28 3 -10 -21 -11
-19 -11 16 -1 21 -6 67 -13 103 -9 49 -9 66 0 75 9 9 12 2 13 -32 0 -25 3 -39
6 -32 8 20 26 14 20 -7 -2 -11 -1 -35 3 -53 7 -28 8 -23 9 30 1 55 4 64 23 71
18 6 19 9 5 14 -18 7 -24 67 -7 67 6 0 10 28 10 64 0 63 1 65 28 69 l27 4 -27
2 c-28 1 -28 1 -28 76 0 65 2 75 18 75 16 1 16 1 0 11 -14 8 -18 24 -18 74 0
41 -4 65 -11 65 -8 0 -10 29 -7 95 4 87 -2 125 -15 93 -4 -10 -6 -10 -6 -1 -1
7 8 17 19 23 19 10 20 8 21 -32 0 -40 1 -41 11 -18 10 23 11 23 15 5 3 -11 10
-24 15 -30 8 -7 9 -5 5 8 -7 19 -4 20 68 19 32 0 41 2 25 6 -21 5 -18 7 20 13
l45 6 -46 1 -46 2 4 66 c3 43 1 64 -6 60 -6 -4 -8 -13 -5 -20 3 -7 -2 -16 -10
-19 -9 -4 -16 -18 -16 -32 0 -19 -5 -25 -22 -25 -17 0 -19 3 -9 9 11 7 11 9 0
14 -12 4 -11 7 1 16 8 6 10 11 4 11 -8 0 -11 20 -9 58 2 31 0 66 -3 77 -5 17
-7 16 -13 -10 l-7 -30 -1 28 c0 15 -5 27 -9 27 -5 0 -7 -13 -4 -30 2 -17 0
-30 -6 -30 -6 0 -13 -8 -15 -17 -3 -10 -5 1 -6 24 0 23 -4 49 -7 57 -5 12 -2
15 12 9 12 -4 15 -3 10 5 -5 8 -1 10 10 5 14 -5 16 -3 11 11 -5 13 -1 19 13
23 15 4 18 9 10 17 -6 8 -6 24 -1 42 10 36 2 134 -11 134 -5 0 -6 -4 -3 -10 3
-5 -3 -10 -14 -10 -12 0 -21 5 -21 10 0 6 5 10 11 10 5 0 7 5 4 10 -3 6 3 10
14 10 12 0 21 5 21 11 0 8 -24 10 -75 7 -41 -3 -75 -1 -75 4 0 5 5 6 10 3 6
-3 10 4 10 17 0 18 -2 20 -10 8 -5 -8 -10 -10 -10 -5 0 6 -9 -3 -20 -20 -22
-36 -38 -135 -21 -135 14 0 15 -308 1 -330 -7 -11 -10 -4 -10 28 0 34 -3 42
-19 42 -15 0 -18 7 -18 43 3 118 -8 385 -15 381 -4 -3 -8 2 -8 10 0 20 17 30
23 14 3 -8 6 -6 6 5 1 27 -17 20 -39 -15 l-21 -33 4 53 c2 28 3 52 1 52 -2 0
-11 -16 -19 -36z m47 -204 l-7 -55 -6 85 -5 85 -2 -72 c-1 -40 -6 -73 -12 -73
-12 0 -1 131 14 149 16 20 26 -49 18 -119z m189 71 c-8 -5 -20 -7 -28 -4 -21
8 -15 13 15 13 20 0 23 -3 13 -9z m-21 -37 c0 -8 -4 -12 -10 -9 -5 3 -10 10
-10 16 0 5 5 9 10 9 6 0 10 -7 10 -16z m76 -14 c0 -11 -5 -20 -11 -20 -6 0
-11 9 -12 20 -1 11 4 20 10 20 7 0 13 -9 13 -20z m-69 -50 c1 -19 0 -20 -4 -5
-6 20 -6 20 -13 0 -6 -18 -7 -17 -12 6 -3 18 0 25 12 25 10 0 16 -9 17 -26z
m20 -32 c-2 -13 -4 -3 -4 22 0 25 2 35 4 23 2 -13 2 -33 0 -45z m52 30 c-1
-17 -2 -19 -6 -5 -7 28 -21 20 -26 -15 -4 -32 -4 -32 -5 5 -2 31 1 37 18 37
14 0 20 -6 19 -22z m-243 -119 c3 -6 1 -16 -5 -22 -9 -9 -10 -7 -5 7 5 13 4
17 -4 12 -7 -4 -12 -2 -12 3 0 14 17 14 26 0z m101 -41 c-3 -7 -5 -2 -5 12 0
14 2 19 5 13 2 -7 2 -19 0 -25z m96 -80 c8 -5 6 -9 -6 -14 -9 -3 -17 -15 -17
-25 0 -21 -19 -27 -21 -6 -3 31 4 72 12 75 5 2 9 11 9 20 0 15 -2 15 -10 2 -8
-13 -10 -13 -10 2 0 34 25 25 28 -11 2 -20 9 -39 15 -43z m-76 -15 c-3 -10 -5
-2 -5 17 0 19 2 27 5 18 2 -10 2 -26 0 -35z m100 -5 c-3 -7 -5 -2 -5 12 0 14
2 19 5 13 2 -7 2 -19 0 -25z m-192 -80 c2 -26 -12 -22 -20 5 -18 61 -18 63 1
37 10 -13 19 -32 19 -42z m109 37 c3 -8 1 -15 -4 -15 -6 0 -10 7 -10 15 0 8 2
15 4 15 2 0 6 -7 10 -15z m-7 -72 c-3 -10 -5 -2 -5 17 0 19 2 27 5 18 2 -10 2
-26 0 -35z m150 21 c-3 -3 -12 -4 -19 -1 -8 3 -5 6 6 6 11 1 17 -2 13 -5z
m-261 -54 c0 -11 -4 -20 -8 -20 -4 0 -8 9 -8 20 0 11 4 20 8 20 4 0 8 -9 8
-20z m161 -32 c-2 -13 -4 -5 -4 17 -1 22 1 32 4 23 2 -10 2 -28 0 -40z m-92 2
c3 -5 -3 -10 -14 -10 -11 0 -23 -4 -26 -10 -3 -5 3 -10 15 -10 13 0 20 -5 18
-12 -7 -19 -41 -21 -63 -3 -19 14 -18 14 10 4 23 -8 27 -8 18 2 -9 9 -9 16 0
30 13 21 32 25 42 9z m45 -55 c0 -8 -3 -15 -7 -16 -5 0 -16 -2 -25 -4 -21 -4
-19 17 2 27 24 11 30 9 30 -7z m27 -522 c-3 -10 -5 -2 -5 17 0 19 2 27 5 18 2
-10 2 -26 0 -35z m-50 -210 c-3 -10 -5 -4 -5 12 0 17 2 24 5 18 2 -7 2 -21 0
-30z m10 -145 c-2 -13 -4 -5 -4 17 -1 22 1 32 4 23 2 -10 2 -28 0 -40z m30
-30 c-3 -8 -6 -5 -6 6 -1 11 2 17 5 13 3 -3 4 -12 1 -19z m-20 -385 c-2 -16
-4 -5 -4 22 0 28 2 40 4 28 2 -13 2 -35 0 -50z m-29 -182 c21 -1 14 -41 -8
-41 -11 0 -20 5 -20 11 0 5 -4 8 -9 5 -5 -3 -19 2 -32 13 l-23 18 40 -3 c21
-1 45 -3 52 -3z m-101 -233 c-3 -8 -6 -5 -6 6 -1 11 2 17 5 13 3 -3 4 -12 1
-19z m17 -69 c-6 -36 -8 -40 -15 -21 -5 13 -4 34 2 48 14 38 21 24 13 -27z
m961 -45 c2 -45 1 -62 -5 -49 -9 21 -14 132 -5 123 3 -3 7 -36 10 -74z m-988
-11 c-3 -10 -5 -4 -5 12 0 17 2 24 5 18 2 -7 2 -21 0 -30z m20 -85 c-2 -18 -4
-4 -4 32 0 36 2 50 4 33 2 -18 2 -48 0 -65z m1039 24 c-12 -12 -18 8 -10 35
l8 28 4 -28 c2 -16 1 -31 -2 -35z m-1059 -14 c-2 -13 -4 -5 -4 17 -1 22 1 32
4 23 2 -10 2 -28 0 -40z m1050 -60 c-2 -13 -4 -3 -4 22 0 25 2 35 4 23 2 -13
2 -33 0 -45z m-20 5 c-3 -10 -5 -2 -5 17 0 19 2 27 5 18 2 -10 2 -26 0 -35z
m100 5 c-3 -8 -6 -5 -6 6 -1 11 2 17 5 13 3 -3 4 -12 1 -19z m-150 -20 c-3 -8
-6 -5 -6 6 -1 11 2 17 5 13 3 -3 4 -12 1 -19z m50 -50 c-3 -7 -5 -2 -5 12 0
14 2 19 5 13 2 -7 2 -19 0 -25z m124 -15 c-4 -28 -6 -32 -9 -15 -3 22 3 52 11
52 1 0 1 -17 -2 -37z m39 15 c0 -16 -3 -19 -11 -11 -6 6 -8 16 -5 22 11 17 16
13 16 -11z m-133 -50 c-3 -7 -5 -2 -5 12 0 14 2 19 5 13 2 -7 2 -19 0 -25z
m-24 2 c3 -11 1 -20 -4 -20 -5 0 -9 9 -9 20 0 11 2 20 4 20 2 0 6 -9 9 -20z
m64 -37 c-3 -10 -5 -4 -5 12 0 17 2 24 5 18 2 -7 2 -21 0 -30z m-99 -54 c-21
-14 -28 -10 -28 15 0 30 33 41 38 12 2 -10 -2 -23 -10 -27z m37 21 c3 -5 1
-10 -4 -10 -6 0 -11 5 -11 10 0 6 2 10 4 10 3 0 8 -4 11 -10z m102 -52 c-3 -7
-5 -2 -5 12 0 14 2 19 5 13 2 -7 2 -19 0 -25z m-127 7 c0 -8 -2 -15 -4 -15 -2
0 -11 -3 -20 -6 -10 -4 -16 -1 -16 9 0 14 13 24 33 26 4 1 7 -6 7 -14z m30 5
c0 -5 -4 -10 -10 -10 -5 0 -10 5 -10 10 0 6 5 10 10 10 6 0 10 -4 10 -10z
m177 -12 c-3 -8 -6 -5 -6 6 -1 11 2 17 5 13 3 -3 4 -12 1 -19z m-1210 -35 c-3
-10 -5 -2 -5 17 0 19 2 27 5 18 2 -10 2 -26 0 -35z m1060 -5 c-3 -8 -6 -5 -6
6 -1 11 2 17 5 13 3 -3 4 -12 1 -19z m73 -43 c-17 -20 -40 -19 -40 3 0 14 2
15 10 2 9 -13 10 -13 10 1 0 8 6 21 13 28 17 17 23 -14 7 -34z m-1128 -32 c6
-7 8 -20 4 -28 -3 -10 4 -25 19 -39 30 -28 31 -36 6 -36 -11 0 -21 8 -24 18
-2 9 -4 2 -4 -16 0 -18 3 -28 7 -22 5 8 17 1 37 -19 39 -38 122 -91 144 -91
10 0 21 -5 25 -11 5 -9 -1 -10 -22 -5 -46 11 -144 58 -144 68 0 5 -5 6 -12 2
-7 -5 -9 -2 -6 8 4 8 2 21 -3 29 -8 12 -10 12 -18 -1 -8 -11 -12 -9 -20 13
-14 35 -14 97 -1 97 6 0 6 9 0 26 -6 14 -9 35 -9 47 2 19 2 19 6 -3 3 -14 9
-31 15 -37z m5 35 c-3 -8 -6 -5 -6 6 -1 11 2 17 5 13 3 -3 4 -12 1 -19z m1154
-70 c-9 -32 -9 -32 -6 12 4 53 6 61 12 38 2 -9 0 -31 -6 -50z m36 20 c-3 -8
-6 -5 -6 6 -1 11 2 17 5 13 3 -3 4 -12 1 -19z m-1170 -20 c-3 -7 -5 -2 -5 12
0 14 2 19 5 13 2 -7 2 -19 0 -25z m1083 22 c-8 -5 -19 -10 -25 -10 -5 0 -3 5
5 10 8 5 20 10 25 10 6 0 3 -5 -5 -10z m-36 -64 c-7 -17 -34 -23 -34 -6 0 9
32 31 38 26 1 -2 0 -11 -4 -20z m70 -58 c-16 -18 -30 -35 -31 -37 -2 -2 -6 -1
-10 3 -8 7 46 64 61 65 6 1 -3 -14 -20 -31z m-64 -12 c0 -2 -8 -10 -17 -17
-16 -13 -17 -12 -4 4 13 16 21 21 21 13z m-76 -20 c-6 -15 -34 -30 -41 -22 -5
5 26 36 37 36 5 0 7 -6 4 -14z m216 5 c0 -5 -7 -12 -16 -15 -24 -9 -28 -7 -14
9 14 17 30 20 30 6z m-898 -72 c-9 -4 -18 -2 -20 2 -2 5 -10 9 -18 9 -8 0 -14
5 -14 11 0 5 4 8 9 5 5 -3 15 1 22 10 11 14 14 13 25 -8 11 -20 10 -24 -4 -29z
m578 41 c0 -5 -3 -9 -7 -8 -5 1 -32 -4 -61 -10 -85 -19 -116 -12 -37 8 82 22
105 24 105 10z m154 -5 c-4 -8 -11 -12 -16 -9 -6 4 -5 10 3 15 19 12 19 11 13
-6z m-376 -2 c-10 -2 -26 -2 -35 0 -10 3 -2 5 17 5 19 0 27 -2 18 -5z m65 0
c-7 -2 -19 -2 -25 0 -7 3 -2 5 12 5 14 0 19 -2 13 -5z m238 -30 c-10 -19 -91
-28 -91 -11 0 5 6 8 13 5 6 -2 26 2 42 9 40 18 48 17 36 -3z m-138 0 c-7 -2
-19 -2 -25 0 -7 3 -2 5 12 5 14 0 19 -2 13 -5z m171 -11 c3 -5 -1 -9 -9 -9 -8
0 -15 4 -15 9 0 4 4 8 9 8 6 0 12 -4 15 -8z m-884 -6 c0 -3 -4 -8 -10 -11 -5
-3 -10 -1 -10 4 0 6 5 11 10 11 6 0 10 -2 10 -4z m186 -11 c86 -6 112 -14 93
-26 -10 -6 -1 -9 26 -10 33 -2 35 -3 11 -6 -36 -6 -216 35 -216 48 0 6 4 8 9
5 4 -3 39 -8 77 -11z m651 -19 c-7 -20 -106 -34 -256 -34 -82 -1 -162 3 -178
7 l-28 7 34 7 c18 4 37 4 43 1 28 -17 269 -5 276 14 1 5 23 7 48 5 29 -2 43 0
39 7 -3 6 0 7 10 4 9 -4 14 -12 12 -18z m-267 4 c-14 -4 -38 -8 -55 -8 -29 1
-29 1 5 8 50 11 83 11 50 0z m105 0 c-3 -5 -14 -10 -23 -9 -14 0 -13 2 3 9 27
11 27 11 20 0z"/>
<path d="M2448 753 c7 -3 16 -2 19 1 4 3 -2 6 -13 5 -11 0 -14 -3 -6 -6z"/>
<path d="M2924 4082 c3 -6 -3 -13 -14 -17 -26 -8 -25 -21 2 -36 13 -7 28 -18
36 -25 14 -14 69 -9 87 8 7 7 -5 8 -35 4 -36 -5 -50 -2 -70 14 -24 18 -24 19
-6 33 15 11 16 16 6 22 -8 5 -11 4 -6 -3z"/>
<path d="M2397 3983 c-12 -11 -8 -23 8 -23 8 0 15 7 15 15 0 16 -12 20 -23 8z"/>
<path d="M2980 3980 c0 -5 5 -10 11 -10 5 0 7 5 4 10 -3 6 -8 10 -11 10 -2 0
-4 -4 -4 -10z"/>
<path d="M2455 3970 c3 -5 8 -10 11 -10 2 0 4 5 4 10 0 6 -5 10 -11 10 -5 0
-7 -4 -4 -10z"/>
<path d="M2503 3973 c9 -2 23 -2 30 0 6 3 -1 5 -18 5 -16 0 -22 -2 -12 -5z"/>
<path d="M2860 3970 c-25 -4 -61 -15 -80 -24 l-35 -17 50 7 c28 4 77 10 110
14 33 4 51 8 40 10 -17 2 -17 3 5 10 22 7 21 8 -10 8 -19 -1 -55 -4 -80 -8z"/>
<path d="M2538 3953 c6 -2 18 -2 25 0 6 3 1 5 -13 5 -14 0 -19 -2 -12 -5z"/>
<path d="M2399 3943 c0 -5 -2 -16 -4 -25 -2 -10 1 -20 6 -24 5 -3 9 9 9 25 0
17 -2 31 -5 31 -3 0 -5 -3 -6 -7z"/>
<path d="M2450 3935 c0 -8 5 -15 10 -15 6 0 10 7 10 15 0 8 -4 15 -10 15 -5 0
-10 -7 -10 -15z"/>
<path d="M2490 3936 c0 -18 36 -22 60 -6 12 8 11 10 -7 10 -12 0 -28 3 -37 6
-11 4 -16 1 -16 -10z"/>
<path d="M2490 3850 c0 -37 4 -60 11 -60 6 0 8 -7 5 -16 -3 -8 -2 -13 3 -9 5
3 12 22 16 43 5 32 10 38 32 40 36 3 43 12 9 12 -39 0 -28 23 15 31 42 8 38
10 -33 15 l-58 4 0 -60z m40 20 c0 -5 -2 -10 -4 -10 -3 0 -8 5 -11 10 -3 6 -1
10 4 10 6 0 11 -4 11 -10z"/>
<path d="M2628 3903 c6 -2 18 -2 25 0 6 3 1 5 -13 5 -14 0 -19 -2 -12 -5z"/>
<path d="M2870 3900 c8 -5 24 -9 35 -9 l20 0 -20 9 c-11 5 -27 9 -35 9 -13 1
-13 0 0 -9z"/>
<path d="M2450 3853 c0 -21 5 -45 10 -53 7 -11 10 0 8 38 -1 59 -18 72 -18 15z"/>
<path d="M2392 3830 c1 -16 6 -30 10 -30 4 0 8 14 8 30 0 17 -5 30 -10 30 -6
0 -9 -13 -8 -30z"/>
<path d="M2883 3785 c0 -27 2 -38 4 -22 2 15 2 37 0 50 -2 12 -4 0 -4 -28z"/>
<path d="M2814 3789 c-3 -6 -1 -16 5 -22 8 -8 11 -5 11 11 0 24 -5 28 -16 11z"/>
<path d="M2942 3710 c0 -19 2 -27 5 -17 2 9 2 25 0 35 -3 9 -5 1 -5 -18z"/>
<path d="M2892 3695 c0 -16 2 -22 5 -12 2 9 2 23 0 30 -3 6 -5 -1 -5 -18z"/>
<path d="M2141 3664 c0 -11 3 -14 6 -6 3 7 2 16 -1 19 -3 4 -6 -2 -5 -13z"/>
<path d="M2525 3650 l-30 -8 30 0 c17 0 39 3 50 8 l20 9 -20 -1 c-11 0 -33 -4
-50 -8z"/>
<path d="M3733 3643 c26 -2 68 -2 95 0 26 2 4 3 -48 3 -52 0 -74 -1 -47 -3z"/>
<path d="M3335 3631 c-18 -5 6 -7 62 -7 51 1 93 4 93 9 0 9 -114 7 -155 -2z"/>
<path d="M3563 3633 c15 -2 39 -2 55 0 15 2 2 4 -28 4 -30 0 -43 -2 -27 -4z"/>
<path d="M4024 3604 c-7 -3 -2 -27 14 -69 14 -36 27 -63 29 -61 2 2 -1 16 -7
31 -6 15 -9 30 -7 32 6 6 54 -116 61 -157 l6 -35 -14 30 c-20 42 -19 28 2 -36
10 -30 25 -82 32 -117 7 -35 17 -59 21 -55 5 5 -3 44 -16 88 -25 79 -33 127
-13 71 8 -22 13 -25 20 -15 6 10 7 7 3 -8 -4 -14 -2 -23 5 -23 7 0 9 -9 5 -22
-5 -19 -4 -20 5 -8 10 12 11 11 6 -9 -3 -15 5 -42 23 -75 15 -28 38 -78 51
-111 12 -33 31 -78 40 -100 10 -22 26 -66 36 -97 10 -32 19 -56 22 -54 6 7
-13 62 -83 241 -34 88 -72 190 -85 228 -12 37 -26 65 -31 62 -4 -3 -11 7 -15
22 -14 63 -80 247 -89 249 -5 1 -15 0 -21 -2z m26 -34 c12 -23 12 -24 -3 -11
-10 7 -17 20 -17 29 0 18 3 16 20 -18z"/>
<path d="M2464 3561 c4 -5 0 -12 -6 -15 -7 -3 -2 -3 12 0 38 9 48 24 16 24
-15 0 -25 -4 -22 -9z"/>
<path d="M3313 3553 c9 -2 25 -2 35 0 9 3 1 5 -18 5 -19 0 -27 -2 -17 -5z"/>
<path d="M3598 3553 c6 -2 18 -2 25 0 6 3 1 5 -13 5 -14 0 -19 -2 -12 -5z"/>
<path d="M3538 3543 c6 -2 18 -2 25 0 6 3 1 5 -13 5 -14 0 -19 -2 -12 -5z"/>
<path d="M2463 3510 c-33 -13 -28 -18 15 -18 20 0 51 -2 67 -6 28 -5 27 -5 -2
4 -18 6 -33 15 -33 20 0 12 -17 12 -47 0z"/>
<path d="M2042 3470 c0 -19 2 -27 5 -17 2 9 2 25 0 35 -3 9 -5 1 -5 -18z"/>
<path d="M2941 3464 c0 -11 3 -14 6 -6 3 7 2 16 -1 19 -3 4 -6 -2 -5 -13z"/>
<path d="M2518 3433 c7 -3 16 -2 19 1 4 3 -2 6 -13 5 -11 0 -14 -3 -6 -6z"/>
<path d="M2043 3375 c0 -22 2 -30 4 -17 2 12 2 30 0 40 -3 9 -5 -1 -4 -23z"/>
<path d="M2313 3355 c0 -33 2 -45 4 -27 2 18 2 45 0 60 -2 15 -4 0 -4 -33z"/>
<path d="M2941 3370 c-2 -71 11 -180 20 -174 5 3 7 15 4 27 -3 12 -10 60 -14
107 -5 55 -9 69 -10 40z"/>
<path d="M2044 3215 c0 -66 1 -92 3 -57 2 34 2 88 0 120 -2 31 -3 3 -3 -63z"/>
<path d="M2082 3260 c0 -19 2 -27 5 -17 2 9 2 25 0 35 -3 9 -5 1 -5 -18z"/>
<path d="M2352 3240 c0 -14 2 -19 5 -12 2 6 2 18 0 25 -3 6 -5 1 -5 -13z"/>
<path d="M3673 3180 c0 -25 2 -35 4 -22 2 12 2 32 0 45 -2 12 -4 2 -4 -23z"/>
<path d="M3936 3193 c-6 -14 -5 -15 5 -6 7 7 10 15 7 18 -3 3 -9 -2 -12 -12z"/>
<path d="M2352 3175 c0 -16 2 -22 5 -12 2 9 2 23 0 30 -3 6 -5 -1 -5 -18z"/>
<path d="M4166 3145 c-3 -9 -6 -22 -5 -28 0 -7 5 -1 10 12 5 13 8 26 5 28 -2
2 -6 -3 -10 -12z"/>
<path d="M2360 3123 c0 -10 4 -14 8 -8 4 6 11 13 16 18 5 4 2 7 -7 7 -10 0
-17 -8 -17 -17z"/>
<path d="M3682 3050 c0 -14 2 -19 5 -12 2 6 2 18 0 25 -3 6 -5 1 -5 -13z"/>
<path d="M2053 2910 c0 -36 2 -50 4 -32 2 17 2 47 0 65 -2 17 -4 3 -4 -33z"/>
<path d="M2382 2956 c7 -8 15 -12 17 -11 5 6 -10 25 -20 25 -5 0 -4 -6 3 -14z"/>
<path d="M3987 2944 c-6 -10 9 -42 16 -34 3 3 1 14 -3 24 -3 11 -9 15 -13 10z"/>
<path d="M2463 2815 c0 -33 2 -45 4 -27 2 18 2 45 0 60 -2 15 -4 0 -4 -33z"/>
<path d="M2895 2810 c-3 -5 -1 -10 4 -10 6 0 11 5 11 10 0 6 -2 10 -4 10 -3 0
-8 -4 -11 -10z"/>
<path d="M4352 2780 c0 -8 4 -26 8 -40 6 -20 8 -21 8 -5 0 11 -3 29 -8 40 -5
12 -8 14 -8 5z"/>
<path d="M3241 2754 c0 -11 3 -14 6 -6 3 7 2 16 -1 19 -3 4 -6 -2 -5 -13z"/>
<path d="M2063 2660 c0 -47 2 -66 4 -42 2 23 2 61 0 85 -2 23 -4 4 -4 -43z"/>
<path d="M4377 2645 c3 -38 9 -83 14 -100 6 -21 7 -10 4 40 -3 39 -9 84 -14
100 -7 22 -8 11 -4 -40z"/>
<path d="M2473 2655 c0 -22 2 -30 4 -17 2 12 2 30 0 40 -3 9 -5 -1 -4 -23z"/>
<path d="M2821 2634 c0 -11 3 -14 6 -6 3 7 2 16 -1 19 -3 4 -6 -2 -5 -13z"/>
<path d="M2164 2540 c0 -52 1 -74 3 -47 2 26 2 68 0 95 -2 26 -3 4 -3 -48z"/>
<path d="M3448 2523 c-49 -2 -88 -7 -88 -12 0 -10 244 -24 247 -14 2 4 69 8
151 8 179 -1 235 9 102 18 -96 6 -253 6 -412 0z"/>
<path d="M4045 2510 c3 -5 13 -10 21 -10 8 0 14 5 14 10 0 6 -9 10 -21 10 -11
0 -17 -4 -14 -10z"/>
<path d="M2871 2494 c0 -11 3 -14 6 -6 3 7 2 16 -1 19 -3 4 -6 -2 -5 -13z"/>
<path d="M3100 2498 c-41 -5 -102 -12 -134 -16 -33 -4 -61 -12 -63 -18 -4 -13
154 -62 184 -56 12 2 20 8 17 13 -6 11 21 10 56 -1 22 -7 22 -8 5 -10 -11 -2
-2 -6 20 -9 22 -4 49 -4 60 -1 14 3 8 7 -20 11 l-40 6 40 3 40 3 -40 7 -40 7
38 2 c61 2 42 18 -22 17 -32 -1 -58 -3 -56 -6 2 -3 -25 -5 -58 -6 -34 0 -53 2
-42 4 11 2 24 8 30 13 5 5 26 9 47 9 50 0 138 20 138 31 0 11 -55 10 -160 -3z
m-137 -45 c-7 -2 -19 -2 -25 0 -7 3 -2 5 12 5 14 0 19 -2 13 -5z"/>
<path d="M4130 2496 c0 -10 9 -16 23 -17 16 -1 18 -2 5 -6 -28 -7 -21 -23 10
-23 36 1 73 22 64 37 -4 7 -29 15 -55 18 -39 6 -47 4 -47 -9z"/>
<path d="M2062 2460 c0 -19 2 -27 5 -17 2 9 2 25 0 35 -3 9 -5 1 -5 -18z"/>
<path d="M4402 2460 c0 -19 2 -27 5 -17 2 9 2 25 0 35 -3 9 -5 1 -5 -18z"/>
<path d="M2496 2445 c4 -8 8 -15 10 -15 2 0 4 7 4 15 0 8 -4 15 -10 15 -5 0
-7 -7 -4 -15z"/>
<path d="M4342 2447 c-15 -17 -55 -163 -54 -196 0 -18 -2 -20 -9 -10 -9 14
-10 12 -14 -29 -4 -35 -198 -221 -277 -266 -75 -42 -92 -59 -25 -25 91 47 243
159 300 223 15 17 46 63 67 102 32 57 40 83 42 132 3 65 -10 94 -30 69z"/>
<path d="M3373 2442 c-27 -4 -31 -22 -5 -23 10 0 12 -3 5 -6 -7 -2 -13 -12
-13 -20 0 -11 6 -14 23 -9 12 3 25 6 30 6 11 0 8 25 -5 41 -7 8 -23 13 -35 11z"/>
<path d="M3434 2426 c3 -12 6 -27 6 -33 0 -19 283 -18 298 0 6 7 26 14 44 16
18 1 67 8 108 15 l75 13 -90 2 c-470 8 -447 9 -441 -13z"/>
<path d="M3310 2424 c0 -9 5 -14 12 -12 18 6 21 28 4 28 -9 0 -16 -7 -16 -16z"/>
<path d="M2897 2410 c-7 -26 19 -133 45 -184 23 -46 73 -116 85 -119 4 -1 7
-6 5 -10 -1 -5 1 -6 6 -3 5 3 20 -6 33 -20 43 -46 237 -130 256 -110 3 3 -1 6
-10 6 -23 0 -168 80 -162 90 3 5 -1 11 -7 14 -7 3 -3 3 10 0 12 -3 39 -7 60
-9 20 -1 46 -6 57 -11 14 -6 12 0 -9 19 -16 15 -33 27 -38 27 -5 0 -6 5 -3 10
6 9 -10 14 -45 11 -8 0 -2 6 14 13 20 9 25 15 15 19 -12 4 -12 6 1 6 10 1 7 6
-8 17 -12 8 -22 21 -21 27 3 26 -2 34 -26 45 -31 14 -33 34 -2 32 46 -4 51 2
12 15 -39 13 -38 14 33 9 60 -5 72 -3 72 10 0 12 -12 14 -62 12 -35 -2 -55 -1
-45 1 9 3 17 8 17 13 0 11 -30 21 -41 14 -14 -8 -169 35 -205 57 -31 19 -32
19 -37 -1z m170 -66 c-3 -3 -12 -4 -19 -1 -8 3 -5 6 6 6 11 1 17 -2 13 -5z
m22 -90 c14 -12 -19 -1 -35 12 -18 14 -18 14 6 3 14 -6 27 -13 29 -15z m111
-154 c-13 -8 -12 -10 4 -10 11 0 17 -3 13 -6 -3 -3 -15 -3 -26 1 -24 7 -19 25
7 25 15 0 15 -2 2 -10z"/>
<path d="M4277 2373 c-15 -46 -14 -69 3 -58 4 3 11 21 14 41 4 19 10 42 13 50
3 8 1 14 -5 14 -5 0 -17 -21 -25 -47z"/>
<path d="M4178 2403 c7 -3 16 -2 19 1 4 3 -2 6 -13 5 -11 0 -14 -3 -6 -6z"/>
<path d="M3310 2390 c0 -5 7 -10 15 -10 8 0 15 5 15 10 0 6 -7 10 -15 10 -8 0
-15 -4 -15 -10z"/>
<path d="M4175 2383 c-69 -14 -65 -11 -65 -58 0 -24 -4 -47 -10 -50 -6 -4 -10
14 -10 45 0 37 -4 50 -12 47 -7 -2 -13 -15 -14 -28 -2 -33 -15 -79 -23 -79 -3
0 -4 22 -3 50 3 32 0 50 -7 50 -7 0 -11 -31 -11 -89 0 -73 -3 -90 -16 -95 -13
-5 -14 -4 -6 7 7 8 9 17 6 20 -4 3 -6 39 -7 79 0 40 -2 58 -4 41 -3 -23 -10
-33 -21 -33 -15 0 -15 2 -2 10 8 5 10 10 3 10 -6 0 -9 9 -5 22 5 20 2 21 -34
15 -21 -4 -56 -7 -77 -7 -21 0 -36 -3 -34 -7 3 -5 -78 -7 -179 -5 -155 3 -184
1 -184 -11 0 -8 17 -19 43 -25 l42 -11 -42 5 c-28 4 -43 2 -43 -5 0 -7 7 -14
15 -17 13 -5 131 -12 295 -16 36 -1 56 -3 45 -6 -11 -2 -24 -8 -30 -13 -5 -5
-34 -9 -65 -10 -30 0 -75 -4 -100 -9 -35 -7 -25 -8 44 -4 88 4 89 4 72 -15 -9
-10 -37 -22 -61 -26 -25 -3 -48 -11 -51 -17 -5 -8 3 -9 27 -4 65 15 84 15 44
2 -22 -8 -53 -15 -70 -16 -27 -1 -28 -2 -10 -11 15 -7 12 -8 -14 -4 -19 3 -57
2 -85 -2 l-51 -7 40 -8 c46 -9 207 11 199 24 -3 5 7 5 23 1 15 -4 43 -7 61 -6
40 2 33 -13 -11 -22 -56 -11 -67 -16 -62 -26 9 -14 54 -10 120 10 33 10 64 16
70 13 5 -3 -28 -18 -75 -33 -53 -17 -75 -27 -58 -28 23 -1 99 23 171 54 9 4
17 3 17 -3 0 -11 -107 -56 -172 -72 -57 -15 -77 -16 -220 -19 -109 -1 -121 -3
-104 -16 10 -8 23 -12 28 -9 5 3 41 7 80 9 49 2 67 0 59 -8 -6 -6 -31 -11 -56
-12 -25 -1 -49 -6 -53 -10 -4 -4 16 -5 45 -3 31 3 50 1 47 -4 -4 -6 25 -8 72
-4 44 2 92 5 108 5 33 0 156 51 156 64 0 4 4 6 9 3 5 -3 12 1 15 10 3 8 11 12
17 8 7 -4 9 -3 6 3 -9 14 29 47 43 38 6 -3 9 -3 8 2 -2 4 6 17 17 29 96 101
139 171 130 208 -3 12 -2 15 1 7 4 -9 11 0 20 25 8 21 14 42 14 47 0 7 -21 8
-55 0z m-522 -70 c-7 -2 -19 -2 -25 0 -7 3 -2 5 12 5 14 0 19 -2 13 -5z m84 1
c-3 -3 -12 -4 -19 -1 -8 3 -5 6 6 6 11 1 17 -2 13 -5z m-164 -211 c-7 -2 -21
-2 -30 0 -10 3 -4 5 12 5 17 0 24 -2 18 -5z m258 -107 c-11 -13 -51 -29 -51
-20 0 3 51 33 59 34 2 0 -2 -6 -8 -14z"/>
<path d="M3865 2364 l-70 -12 75 5 c41 3 82 9 90 14 19 10 -1 9 -95 -7z"/>
<path d="M3708 2353 c18 -2 45 -2 60 0 15 2 0 4 -33 4 -33 0 -45 -2 -27 -4z"/>
<path d="M2501 2261 c-1 -52 1 -92 3 -90 9 9 13 145 5 164 -5 12 -8 -16 -8
-74z"/>
<path d="M3223 2343 c9 -2 25 -2 35 0 9 3 1 5 -18 5 -19 0 -27 -2 -17 -5z"/>
<path d="M2062 2300 c0 -19 2 -27 5 -17 2 9 2 25 0 35 -3 9 -5 1 -5 -18z"/>
<path d="M3326 2323 c-11 -11 -6 -23 9 -23 8 0 15 4 15 9 0 13 -16 22 -24 14z"/>
<path d="M3367 2324 c-8 -8 1 -24 14 -24 5 0 9 7 9 15 0 15 -12 20 -23 9z"/>
<path d="M3406 2315 c4 -8 12 -15 20 -15 8 0 14 7 14 15 0 8 -9 15 -20 15 -13
0 -18 -5 -14 -15z"/>
<path d="M3425 2270 c-3 -5 -1 -10 4 -10 6 0 11 5 11 10 0 6 -2 10 -4 10 -3 0
-8 -4 -11 -10z"/>
<path d="M3228 2263 c7 -3 16 -2 19 1 4 3 -2 6 -13 5 -11 0 -14 -3 -6 -6z"/>
<path d="M3378 2263 c7 -3 16 -2 19 1 4 3 -2 6 -13 5 -11 0 -14 -3 -6 -6z"/>
<path d="M4236 2240 c-9 -17 -13 -30 -8 -30 10 0 37 48 31 55 -3 2 -13 -9 -23
-25z"/>
<path d="M3668 2233 c7 -3 16 -2 19 1 4 3 -2 6 -13 5 -11 0 -14 -3 -6 -6z"/>
<path d="M3598 2223 c7 -3 16 -2 19 1 4 3 -2 6 -13 5 -11 0 -14 -3 -6 -6z"/>
<path d="M2560 2143 c0 -28 -2 -70 -4 -94 -2 -24 -1 -32 1 -16 2 15 7 25 11
23 9 -6 9 121 -1 130 -4 4 -7 -15 -7 -43z"/>
<path d="M3488 2183 c7 -3 16 -2 19 1 4 3 -2 6 -13 5 -11 0 -14 -3 -6 -6z"/>
<path d="M3590 2180 c0 -5 10 -10 23 -10 18 0 19 2 7 10 -19 13 -30 13 -30 0z"/>
<path d="M4224 2084 c-43 -42 -65 -67 -49 -56 31 21 144 132 134 132 -3 0 -41
-34 -85 -76z"/>
<path d="M2513 2090 c0 -25 2 -35 4 -22 2 12 2 32 0 45 -2 12 -4 2 -4 -23z"/>
<path d="M3598 2063 c6 -2 18 -2 25 0 6 3 1 5 -13 5 -14 0 -19 -2 -12 -5z"/>
<path d="M3280 2025 c14 -8 30 -14 35 -14 6 0 -1 6 -15 14 -14 8 -29 14 -35
14 -5 0 1 -6 15 -14z"/>
<path d="M4030 2010 c-19 -17 -30 -30 -25 -30 6 0 25 14 44 30 18 17 30 30 25
30 -5 -1 -25 -14 -44 -30z"/>
<path d="M2523 1950 c0 -36 2 -50 4 -32 2 17 2 47 0 65 -2 17 -4 3 -4 -33z"/>
<path d="M2543 1945 c0 -27 2 -38 4 -22 2 15 2 37 0 50 -2 12 -4 0 -4 -28z"/>
<path d="M4033 1939 c-35 -22 -46 -37 -15 -20 22 13 58 40 52 41 -3 0 -20 -10
-37 -21z"/>
<path d="M3216 1944 c6 -2 10 -17 9 -32 -2 -19 -1 -20 2 -4 2 12 6 22 9 22 6
0 87 -53 94 -61 3 -3 34 -21 69 -39 61 -33 84 -40 126 -41 17 0 17 -2 5 -10
-11 -8 -7 -9 17 -5 32 5 53 -7 33 -19 -21 -13 -9 -25 18 -19 22 6 25 5 16 -7
-8 -10 -7 -25 2 -54 11 -35 13 -37 13 -12 1 15 5 27 10 27 5 0 14 14 21 30 22
54 22 24 0 -62 -31 -117 -39 -355 -16 -496 18 -115 19 -135 9 -129 -5 3 -8
-27 -8 -66 0 -40 1 -62 3 -49 2 12 7 22 12 22 10 0 8 -53 -3 -61 -12 -9 18
-117 40 -141 10 -11 27 -25 38 -31 11 -6 3 6 -17 25 -21 19 -38 41 -38 47 0 7
16 -4 37 -24 20 -19 44 -35 53 -35 10 0 20 -7 24 -15 3 -8 10 -15 16 -15 6 0
8 6 4 13 -5 8 -2 8 9 -2 23 -19 21 -31 -5 -32 -13 0 -17 -3 -11 -6 16 -6 113
26 113 37 0 5 -17 14 -37 20 -21 6 -51 22 -68 36 -29 25 -29 25 -5 19 18 -5
13 1 -17 21 -41 27 -70 77 -87 146 -16 69 -27 243 -27 443 0 318 14 371 111
425 60 34 46 34 -65 1 -38 -12 -92 -20 -120 -19 l-50 1 55 7 55 7 -68 1 c-46
1 -81 9 -107 22 -22 11 -40 18 -40 16 0 -8 -140 52 -186 79 -24 14 -46 25 -51
24 -4 0 -3 -3 3 -5z m169 -92 c-3 -3 -11 0 -18 7 -9 10 -8 11 6 5 10 -3 15 -9
12 -12z m345 -1063 c0 -6 -4 -7 -10 -4 -5 3 -10 11 -10 16 0 6 5 7 10 4 6 -3
10 -11 10 -16z m65 -47 c-3 -3 -11 0 -18 7 -9 10 -8 11 6 5 10 -3 15 -9 12
-12z"/>
<path d="M3885 1921 c-33 -15 -67 -31 -75 -34 -10 -3 -10 -6 -2 -6 15 -1 142
55 142 63 0 8 1 9 -65 -23z"/>
<path d="M3183 1890 c0 -25 2 -35 4 -22 2 12 2 32 0 45 -2 12 -4 2 -4 -23z"/>
<path d="M3648 1913 c6 -2 18 -2 25 0 6 3 1 5 -13 5 -14 0 -19 -2 -12 -5z"/>
<path d="M3970 1900 c-8 -6 -34 -15 -57 -21 -23 -6 -48 -17 -54 -25 -10 -12
-5 -12 29 0 46 17 102 44 102 51 0 7 -3 6 -20 -5z"/>
<path d="M2551 1874 c0 -11 3 -14 6 -6 3 7 2 16 -1 19 -3 4 -6 -2 -5 -13z"/>
<path d="M3253 1855 c0 -22 2 -30 4 -17 2 12 2 30 0 40 -3 9 -5 -1 -4 -23z"/>
<path d="M3675 1859 l-70 -18 65 6 c68 6 151 32 100 31 -14 0 -56 -9 -95 -19z"/>
<path d="M2300 1840 c8 -5 22 -9 30 -9 10 0 8 3 -5 9 -27 12 -43 12 -25 0z"/>
<path d="M2358 1823 c6 -2 18 -2 25 0 6 3 1 5 -13 5 -14 0 -19 -2 -12 -5z"/>
<path d="M2135 1780 c3 -5 16 -10 28 -9 21 0 21 1 2 9 -28 12 -37 12 -30 0z"/>
<path d="M3485 1770 c10 -11 22 -17 28 -13 5 3 7 2 4 -4 -3 -5 3 -33 13 -62
11 -28 20 -75 20 -104 0 -28 5 -59 11 -67 8 -12 9 -9 5 11 -3 15 -6 66 -7 115
-1 49 -4 83 -6 76 -7 -17 -23 -5 -23 18 0 10 -10 26 -22 34 -31 22 -45 20 -23
-4z"/>
<path d="M2232 1735 c-1 -27 2 -45 6 -39 4 7 16 14 27 17 19 4 18 5 -2 6 -17
1 -23 8 -26 34 -3 23 -4 18 -5 -18z"/>
<path d="M2141 1744 c0 -11 3 -14 6 -6 3 7 2 16 -1 19 -3 4 -6 -2 -5 -13z"/>
<path d="M2160 1746 c0 -2 7 -7 16 -10 8 -3 12 -2 9 4 -6 10 -25 14 -25 6z"/>
<path d="M2313 1723 c9 -2 23 -2 30 0 6 3 -1 5 -18 5 -16 0 -22 -2 -12 -5z"/>
<path d="M2230 1644 c0 -8 7 -14 15 -14 8 0 15 -7 15 -15 0 -18 -16 -20 -23
-2 -3 6 -5 -4 -6 -23 0 -33 17 -90 18 -62 1 7 5 11 9 8 4 -2 14 -1 22 5 12 7
10 9 -7 9 -29 0 -38 17 -20 38 26 31 26 47 1 59 -19 9 -24 8 -24 -3z"/>
<path d="M2394 1545 c0 -60 1 -84 3 -52 2 32 2 81 0 110 -2 29 -3 3 -3 -58z"/>
<path d="M3004 1636 c-3 -8 -4 -31 -2 -52 3 -36 4 -35 8 14 5 53 4 63 -6 38z"/>
<path d="M2298 1623 c7 -3 16 -2 19 1 4 3 -2 6 -13 5 -11 0 -14 -3 -6 -6z"/>
<path d="M2574 1335 c0 -137 2 -195 3 -128 2 67 2 179 0 250 -1 70 -3 16 -3
-122z"/>
<path d="M2173 1453 c-11 -119 -9 -157 9 -131 5 8 7 -10 4 -47 -4 -48 -4 -53
4 -25 8 32 6 307 -3 316 -2 2 -8 -49 -14 -113z m14 -100 c-3 -10 -5 -4 -5 12
0 17 2 24 5 18 2 -7 2 -21 0 -30z"/>
<path d="M2854 1405 c0 -60 1 -84 3 -52 2 32 2 81 0 110 -2 29 -3 3 -3 -58z"/>
<path d="M2373 1420 c0 -47 2 -66 4 -42 2 23 2 61 0 85 -2 23 -4 4 -4 -43z"/>
<path d="M2271 1474 c0 -11 3 -14 6 -6 3 7 2 16 -1 19 -3 4 -6 -2 -5 -13z"/>
<path d="M2334 1415 c2 -44 2 -68 -1 -52 -2 15 -8 27 -14 27 -12 0 -11 -3 9
-79 9 -35 21 -62 27 -60 5 2 12 -9 16 -26 l6 -30 7 27 c6 19 4 32 -7 43 -9 8
-19 41 -22 72 -4 32 -11 81 -15 108 -8 44 -8 40 -6 -30z"/>
<path d="M2243 1430 c0 -30 2 -43 4 -27 2 15 2 39 0 55 -2 15 -4 2 -4 -28z"/>
<path d="M3564 1360 c0 -69 1 -97 3 -62 2 34 2 90 0 125 -2 34 -3 6 -3 -63z"/>
<path d="M2601 1414 c0 -11 3 -14 6 -6 3 7 2 16 -1 19 -3 4 -6 -2 -5 -13z"/>
<path d="M2274 1335 c0 -49 1 -71 3 -48 2 23 2 64 0 90 -2 26 -3 8 -3 -42z"/>
<path d="M2483 1350 c0 -30 2 -43 4 -27 2 15 2 39 0 55 -2 15 -4 2 -4 -28z"/>
<path d="M2136 1377 c-5 -9 -5 -29 0 -45 7 -25 8 -26 11 -4 3 12 3 32 0 45 -3
19 -4 20 -11 4z"/>
<path d="M2404 1290 c0 -52 1 -74 3 -47 2 26 2 68 0 95 -2 26 -3 4 -3 -48z"/>
<path d="M2382 1300 c0 -14 2 -19 5 -12 2 6 2 18 0 25 -3 6 -5 1 -5 -13z"/>
<path d="M2206 1267 c-5 -20 -6 -48 -4 -62 3 -13 2 -22 -2 -20 -9 6 -22 -76
-20 -132 0 -24 -3 -51 -8 -60 -5 -10 -7 -25 -4 -33 3 -8 11 10 18 40 8 34 9
59 3 65 -13 13 -11 25 4 22 8 -1 11 10 10 38 -2 33 -1 35 6 15 15 -46 23 -106
12 -90 -9 13 -11 13 -11 -1 0 -9 6 -22 14 -29 8 -6 17 -21 19 -33 2 -12 3 -2
1 23 -2 25 -6 54 -9 65 -3 11 -9 67 -14 125 -6 89 -8 99 -15 67z"/>
<path d="M2140 1271 c0 -25 6 -27 13 -6 4 8 2 17 -3 20 -6 4 -10 -3 -10 -14z"/>
<path d="M2938 1263 c6 -2 18 -2 25 0 6 3 1 5 -13 5 -14 0 -19 -2 -12 -5z"/>
<path d="M2487 1208 c-3 -24 -2 -47 4 -52 5 -6 9 9 9 42 0 63 -5 67 -13 10z"/>
<path d="M2282 1195 c0 -16 2 -22 5 -12 2 9 2 23 0 30 -3 6 -5 -1 -5 -18z"/>
<path d="M3553 1140 c0 -30 2 -43 4 -27 2 15 2 39 0 55 -2 15 -4 2 -4 -28z"/>
<path d="M2261 1115 c0 -38 3 -76 7 -82 4 -7 6 18 4 55 -5 96 -10 108 -11 27z"/>
<path d="M2290 1129 c0 -16 4 -28 9 -25 5 3 7 16 4 27 -5 18 -3 20 18 14 18
-5 21 -4 9 4 -27 19 -40 12 -40 -20z"/>
<path d="M2161 1134 c0 -11 3 -14 6 -6 3 7 2 16 -1 19 -3 4 -6 -2 -5 -13z"/>
<path d="M2928 1123 c7 -3 16 -2 19 1 4 3 -2 6 -13 5 -11 0 -14 -3 -6 -6z"/>
<path d="M3543 1035 c0 -22 2 -30 4 -17 2 12 2 30 0 40 -3 9 -5 -1 -4 -23z"/>
<path d="M2602 1035 c0 -16 2 -22 5 -12 2 9 2 23 0 30 -3 6 -5 -1 -5 -18z"/>
<path d="M3078 993 c7 -3 16 -2 19 1 4 3 -2 6 -13 5 -11 0 -14 -3 -6 -6z"/>
<path d="M2290 983 c0 -19 33 -70 55 -83 19 -12 19 -11 -2 11 -12 13 -29 38
-37 54 -9 17 -16 25 -16 18z"/>
<path d="M3532 970 c0 -14 2 -19 5 -12 2 6 2 18 0 25 -3 6 -5 1 -5 -13z"/>
<path d="M2272 955 c0 -16 2 -22 5 -12 2 9 2 23 0 30 -3 6 -5 -1 -5 -18z"/>
<path d="M2928 963 c7 -3 16 -2 19 1 4 3 -2 6 -13 5 -11 0 -14 -3 -6 -6z"/>
<path d="M2868 953 c7 -3 16 -2 19 1 4 3 -2 6 -13 5 -11 0 -14 -3 -6 -6z"/>
<path d="M2250 930 c0 -11 4 -20 9 -20 5 0 7 9 4 20 -3 11 -7 20 -9 20 -2 0
-4 -9 -4 -20z"/>
<path d="M3511 883 c-10 -26 -10 -27 4 -9 8 11 15 23 15 28 0 15 -7 8 -19 -19z"/>
<path d="M3435 794 c-40 -18 -45 -23 -25 -24 24 -1 24 -1 -12 -35 -21 -19 -33
-35 -27 -35 5 0 8 -3 6 -7 -3 -5 9 -8 26 -9 30 -1 30 0 10 9 -13 5 -23 14 -23
19 0 5 6 6 13 2 6 -4 9 -3 4 1 -9 10 41 65 59 65 10 0 29 29 22 35 -2 1 -25
-8 -53 -21z"/>
<path d="M2646 792 c-2 -4 12 -6 32 -4 62 6 69 10 20 11 -26 0 -49 -3 -52 -7z"/>
<path d="M3220 775 c-19 -7 -28 -14 -20 -14 8 0 29 6 45 14 39 17 21 18 -25 0z"/>
<path d="M3481 753 c-11 -16 -21 -22 -21 -15 0 18 -33 -1 -36 -22 -2 -14 1
-14 25 -1 16 8 36 25 45 39 22 35 13 33 -13 -1z"/>
<path d="M3315 755 c-39 -14 -40 -14 -5 -8 41 7 82 22 60 22 -8 0 -33 -7 -55
-14z"/>
<path d="M3870 753 c48 -21 177 -53 209 -52 14 0 -12 9 -59 19 -47 10 -105 25
-129 34 -55 20 -68 19 -21 -1z"/>
<path d="M3158 753 c7 -3 16 -2 19 1 4 3 -2 6 -13 5 -11 0 -14 -3 -6 -6z"/>
<path d="M3108 743 c6 -2 18 -2 25 0 6 3 1 5 -13 5 -14 0 -19 -2 -12 -5z"/>
<path d="M3248 733 c7 -3 16 -2 19 1 4 3 -2 6 -13 5 -11 0 -14 -3 -6 -6z"/>
<path d="M3208 723 c7 -3 16 -2 19 1 4 3 -2 6 -13 5 -11 0 -14 -3 -6 -6z"/>
<path d="M3140 710 c-20 -6 -21 -8 -5 -8 11 0 29 3 40 8 25 11 -1 11 -35 0z"/>
<path d="M3305 699 c-4 -6 -5 -12 -2 -15 2 -3 7 2 10 11 7 17 1 20 -8 4z"/>
<path d="M3035 676 c-61 -29 -95 -60 -95 -87 0 -48 58 -117 120 -142 149 -62
667 -94 848 -54 40 10 92 17 115 17 85 1 243 77 278 135 28 44 24 69 -16 104
-34 29 -84 44 -70 20 4 -6 13 -8 21 -5 7 3 26 -6 41 -20 l28 -24 -37 -33 c-29
-26 -34 -36 -27 -50 6 -10 15 -14 21 -11 7 4 8 2 4 -5 -4 -6 -12 -9 -17 -6 -5
4 -15 3 -21 -2 -37 -23 -130 -48 -240 -63 -73 -10 -143 -29 -136 -36 3 -2 44
3 92 12 49 8 96 13 105 11 29 -6 -122 -30 -214 -33 -49 -2 -142 -7 -206 -10
-75 -4 -140 -2 -185 6 -38 7 -111 14 -163 16 -52 3 -99 8 -105 13 -6 5 -30 12
-53 16 -53 8 -95 40 -74 54 9 6 24 6 38 0 14 -5 30 -9 36 -8 7 0 -12 9 -42 20
-75 26 -91 43 -91 96 0 23 1 43 3 43 12 0 118 50 107 50 -8 0 -37 -11 -65 -24z
m1260 -112 c-23 -17 -32 -10 -15 11 7 8 17 12 23 8 6 -4 3 -11 -8 -19z m-192
-121 c-7 -2 -19 -2 -25 0 -7 3 -2 5 12 5 14 0 19 -2 13 -5z"/>
<path d="M3223 673 c9 -2 25 -2 35 0 9 3 1 5 -18 5 -19 0 -27 -2 -17 -5z"/>
<path d="M3140 653 c0 -11 3 -14 8 -7 4 6 14 14 22 17 10 4 8 6 -7 6 -16 1
-23 -5 -23 -16z"/>
<path d="M3758 653 c6 -2 18 -2 25 0 6 3 1 5 -13 5 -14 0 -19 -2 -12 -5z"/>
<path d="M3693 643 c9 -2 25 -2 35 0 9 3 1 5 -18 5 -19 0 -27 -2 -17 -5z"/>
<path d="M3557 633 c18 -2 50 -2 70 0 21 2 7 4 -32 4 -38 0 -55 -2 -38 -4z"/>
<path d="M3370 619 c0 -5 5 -7 10 -4 6 3 10 8 10 11 0 2 -4 4 -10 4 -5 0 -10
-5 -10 -11z"/>
<path d="M4155 529 c-27 -10 -37 -17 -21 -14 31 7 97 33 81 33 -5 0 -32 -8
-60 -19z"/>
<path d="M4078 503 c7 -3 16 -2 19 1 4 3 -2 6 -13 5 -11 0 -14 -3 -6 -6z"/>
<path d="M3995 490 c-27 -7 -27 -8 -5 -8 14 0 36 4 50 8 20 6 21 8 5 8 -11 0
-33 -4 -50 -8z"/>
<path d="M3165 479 c17 -5 59 -11 95 -14 62 -4 61 -4 -20 10 -96 16 -119 17
-75 4z"/>
<path d="M3928 473 c6 -2 18 -2 25 0 6 3 1 5 -13 5 -14 0 -19 -2 -12 -5z"/>
<path d="M3853 463 c9 -2 25 -2 35 0 9 3 1 5 -18 5 -19 0 -27 -2 -17 -5z"/>
<path d="M3357 453 c18 -2 50 -2 70 0 21 2 7 4 -32 4 -38 0 -55 -2 -38 -4z"/>
<path d="M3738 453 c18 -2 45 -2 60 0 15 2 0 4 -33 4 -33 0 -45 -2 -27 -4z"/>
<path d="M3558 443 c23 -2 59 -2 80 0 20 2 1 4 -43 4 -44 0 -61 -2 -37 -4z"/>
</g>
</svg>
